{"accessors":[{"bufferView":2,"componentType":5126,"count":508,"max":[1.0478639602661133,-3.1594929695129395,0.8854479789733887],"min":[-0.5114759802818298,-9.5015287399292,-0.8559489846229553],"type":"VEC3"},{"bufferView":2,"byteOffset":6096,"componentType":5126,"count":508,"max":[0.9992937445640564,1,0.996877908706665],"min":[-0.9992937445640564,-1,-0.991460382938385],"type":"VEC3"},{"bufferView":3,"componentType":5126,"count":508,"max":[1,1,0.9978068470954895,1],"min":[-1,-0.9999994039535522,-0.9992938041687012,-1],"type":"VEC4"},{"bufferView":1,"componentType":5126,"count":508,"max":[1.8712999820709229,-0.01080000028014183],"min":[0.013299999758601189,-0.9886999726295471],"type":"VEC2"},{"bufferView":0,"componentType":5125,"count":1284,"max":[507],"min":[0],"type":"SCALAR"},{"bufferView":2,"byteOffset":12192,"componentType":5126,"count":693,"max":[-1.2360860109329224,-1.3083659410476685,6.6309099197387695],"min":[-3.0017740726470947,-5.850128173828125,4.176873207092285],"type":"VEC3"},{"bufferView":2,"byteOffset":20508,"componentType":5126,"count":693,"max":[0.9998276233673096,0.9774344563484192,0.9913695454597473],"min":[-0.9997941255569458,-0.9818564653396606,-0.9965566396713257],"type":"VEC3"},{"bufferView":3,"byteOffset":8128,"componentType":5126,"count":693,"max":[0.9997609853744507,0.9937413930892944,0.9997786283493042,1],"min":[-1,-0.9964199662208557,-0.9924657940864563,-1],"type":"VEC4"},{"bufferView":1,"byteOffset":4064,"componentType":5126,"count":693,"max":[1.7238999605178833,-0.009100000374019146],"min":[0.006899999920278788,-0.9887999892234802],"type":"VEC2"},{"bufferView":0,"byteOffset":5136,"componentType":5125,"count":1752,"max":[692],"min":[0],"type":"SCALAR"},{"bufferView":2,"byteOffset":28824,"componentType":5126,"count":3865,"max":[7.354412078857422,8.48943042755127,8.79886531829834],"min":[-7.354416847229004,-9.999996185302734,-1.080104947090149],"type":"VEC3"},{"bufferView":2,"byteOffset":75204,"componentType":5126,"count":3865,"max":[0.9999969005584717,1,0.9998966455459595],"min":[-0.9999969005584717,-1,-0.9999980926513672],"type":"VEC3"},{"bufferView":3,"byteOffset":19216,"componentType":5126,"count":3865,"max":[1,0.9999987483024597,1,1],"min":[-1,-0.9999944567680359,-1,-1],"type":"VEC4"},{"bufferView":1,"byteOffset":9608,"componentType":5126,"count":3865,"max":[3.816200017929077,-0.004699999932199717],"min":[0.002199999988079071,-0.9965999722480774],"type":"VEC2"},{"bufferView":0,"byteOffset":12144,"componentType":5125,"count":10698,"max":[3864],"min":[0],"type":"SCALAR"}],"asset":{"extras":{"author":"Flynn (https://sketchfab.com/wizzergod)","license":"CC-BY-4.0 (http://creativecommons.org/licenses/by/4.0/)","source":"https://sketchfab.com/3d-models/warhammer-40k-landspeeder-dark-millennium-b98eee1b16d54c97a32b943151ac7b37","title":"Warhammer 40k Landspeeder dark millennium"},"generator":"Sketchfab-5.97.1","version":"2.0"},"bufferViews":[{"buffer":0,"byteLength":54936,"byteOffset":0,"name":"floatBufferViews","target":34963},{"buffer":0,"byteLength":40528,"byteOffset":54936,"byteStride":8,"name":"floatBufferViews","target":34962},{"buffer":0,"byteLength":121584,"byteOffset":95464,"byteStride":12,"name":"floatBufferViews","target":34962},{"buffer":0,"byteLength":81056,"byteOffset":217048,"byteStride":16,"name":"floatBufferViews","target":34962}],"buffers":[{"byteLength":298104,"uri":"data:application/octet-stream;base64,"}],"images":[{"uri":"data:application/octet-stream;base64,"},{"uri":"data:application/octet-stream;base64,"},{"uri":"data:application/octet-stream;base64,"},{"uri":"data:application/octet-stream;base64,"},{"uri":"data:application/octet-stream;base64,"},{"uri":"data:application/octet-stream;base64,"}],"materials":[{"doubleSided":true,"name":"mat0_c.jpg","pbrMetallicRoughness":{"baseColorFactor":[1,1,1,1],"baseColorTexture":{"index":0,"texCoord":0},"metallicFactor":1,"metallicRoughnessTexture":{"index":1,"texCoord":0},"roughnessFactor":0.6}},{"doubleSided":true,"name":"mat1_c.jpg","pbrMetallicRoughness":{"baseColorFactor":[1,1,1,1],"baseColorTexture":{"index":2,"texCoord":0},"metallicFactor":1,"metallicRoughnessTexture":{"index":3,"texCoord":0},"roughnessFactor":0.6}},{"doubleSided":true,"name":"mat2_c.jpg","pbrMetallicRoughness":{"baseColorFactor":[1,1,1,1],"baseColorTexture":{"index":4,"texCoord":0},"metallicFactor":1,"metallicRoughnessTexture":{"index":5,"texCoord":0},"roughnessFactor":0.6}}],"meshes":[{"primitives":[{"attributes":{"NORMAL":1,"POSITION":0,"TANGENT":2,"TEXCOORD_0":3},"indices":4,"material":0,"mode":4}]},{"primitives":[{"attributes":{"NORMAL":6,"POSITION":5,"TANGENT":7,"TEXCOORD_0":8},"indices":9,"material":2,"mode":4}]},{"primitives":[{"attributes":{"NORMAL":11,"POSITION":10,"TANGENT":12,"TEXCOORD_0":13},"indices":14,"material":1,"mode":4}]}],"nodes":[{"children":[1],"name":"RootNode (gltf orientation matrix)","rotation":[-0.7071067811865475,0,0,0.7071067811865476]},{"children":[2],"name":"RootNode (model correction matrix)"},{"children":[3,4,5],"name":"Landspeeder_Color.obj.cleaner.materialmerger.gles"},{"mesh":0,"name":""},{"mesh":1,"name":""},{"mesh":2,"name":""}],"samplers":[{"magFilter":9729,"minFilter":9987,"wrapS":10497,"wrapT":33648}],"scene":0,"scenes":[{"name":"OSG_Scene","nodes":[0]}],"textures":[{"sampler":0,"source":0},{"sampler":0,"source":1},{"sampler":0,"source":2},{"sampler":0,"source":3},{"sampler":0,"source":4},{"sampler":0,"source":5}]}